<svg width="112" height="55" viewBox="0 0 112 55" fill="none" xmlns="http://www.w3.org/2000/svg">
<path d="M30.6562 32.625C29.5 31.2292 28.9219 29.8646 28.9219 28.5312C28.9219 27.1771 29.4427 25.8698 30.4844 24.6094C31.4427 23.4219 32.5625 22.6406 33.8438 22.2656C34.2917 22.1302 34.7292 22.0625 35.1562 22.0625C36.5104 22.0625 37.8021 22.5885 39.0312 23.6406C40.1771 24.6094 40.9167 25.7396 41.25 27.0312C41.3542 27.4375 41.4062 27.8333 41.4062 28.2188C41.3958 29.7708 40.8177 31.2396 39.6719 32.625H42.3438V39H39.2031C37.6719 39 36.5521 38.6094 35.8438 37.8281C35.5938 37.5573 35.349 37.1979 35.1094 36.75C32.9948 38.0417 30.5625 38.8542 27.8125 39.1875C27.0833 39.2708 26.375 39.3125 25.6875 39.3125C21.125 39.3125 18.1875 38.151 16.875 35.8281C16.375 34.9427 16.125 33.9062 16.125 32.7188C16.125 31.1146 16.3958 29.4479 16.9375 27.7188C17.1042 27.1875 17.2812 26.7188 17.4688 26.3125L20.7188 27.4219C20.3854 28.3698 20.2188 29.3021 20.2188 30.2188C20.2396 32.0312 21.9844 32.9375 25.4531 32.9375C27.4323 32.9375 29.1823 32.8438 30.7031 32.6562L30.6562 32.625ZM35.1562 31.2969C35.9688 30.7344 36.4688 30.276 36.6562 29.9219C36.7604 29.724 36.8125 29.5312 36.8125 29.3438C36.8125 28.7708 36.5625 28.2865 36.0625 27.8906C35.7604 27.6406 35.4635 27.5156 35.1719 27.5156C34.7448 27.5156 34.3385 27.7604 33.9531 28.25C33.6615 28.625 33.5156 28.9896 33.5156 29.3438C33.5156 29.8229 33.8854 30.3438 34.625 30.9062C34.7604 31.0104 34.9375 31.1406 35.1562 31.2969ZM34.1719 13.9219C35.2865 14.3385 36.4479 15.1719 37.6562 16.4219L35.1562 19.875C34.0833 18.9271 32.9323 18.1042 31.7031 17.4062L34.1719 13.9219ZM42.3438 39C42.0312 39 41.8385 38.8281 41.7656 38.4844C41.7344 38.3281 41.7188 38.1354 41.7188 37.9062V33.7188C41.7188 33.0729 41.8594 32.7135 42.1406 32.6406C42.2031 32.6302 42.2708 32.625 42.3438 32.625C43.0521 32.625 43.7396 32.5312 44.4062 32.3438C44.4062 28.2917 43.8698 24.3073 42.7969 20.3906L48.4062 16.7188C49.4896 20.9688 50.0312 25.3125 50.0312 29.75C50.0312 31.5104 49.9271 33.5573 49.7188 35.8906C48.6458 37.1615 47.4323 38.0208 46.0781 38.4688C45.026 38.8229 43.7812 39 42.3438 39ZM60.1094 32.2812L56.7969 24.3438L62.6875 21.4375L65.5469 32.3438C66.224 32.5312 66.9115 32.625 67.6094 32.625V39C65.7656 39 64.4531 38.7865 63.6719 38.3594C63.1198 38.0469 62.6354 37.5677 62.2188 36.9219C61 38.5052 59.3438 39.3021 57.25 39.3125C55.25 39.3125 53.2865 38.724 51.3594 37.5469C51.1823 37.4323 51 37.3177 50.8125 37.2031L52.4219 31.9375C53.901 32.5833 55.2448 32.9167 56.4531 32.9375C57.6823 32.9375 58.7656 32.776 59.7031 32.4531C59.8594 32.3906 59.9948 32.3333 60.1094 32.2812ZM70.0938 16.8906C71.2083 17.3073 72.3698 18.1406 73.5781 19.3906L71.0781 22.8438C70.0052 21.8958 68.8542 21.0729 67.625 20.375L70.0938 16.8906ZM67.625 39C67.3125 39 67.1198 38.8281 67.0469 38.4844C67.0156 38.3281 67 38.1354 67 37.9062V33.7188C67 33.0729 67.1406 32.7135 67.4219 32.6406C67.4844 32.6302 67.5521 32.625 67.625 32.625H69.1406C70.0469 32.625 70.776 32.5156 71.3281 32.2969C71.026 31.0885 70.3438 29.7031 69.2812 28.1406L73.6562 23.7812C75.2292 25.9688 76.0312 28.4323 76.0625 31.1719C76.0625 31.224 76.0625 31.276 76.0625 31.3281C76.0625 33.0156 75.5573 34.875 74.5469 36.9062C74.3906 37.1979 74.2344 37.4844 74.0781 37.7656C72.4948 38.5885 70.5 39 68.0938 39H67.625ZM77.1562 19.4219L83.1875 16.2812V32.25C83.6667 32.5 84.2292 32.625 84.875 32.625V39C81.3021 39 79.1198 37.8802 78.3281 35.6406C78.0573 34.8802 77.9219 33.875 77.9219 32.625V28.0312C77.9219 24.5208 77.6667 21.651 77.1562 19.4219ZM98.9688 14.0781L86.375 18.2188L86.7344 16.0938L99.3281 11.9531L98.9688 14.0781ZM84.875 39C84.5625 39 84.3698 38.8281 84.2969 38.4844C84.2656 38.3281 84.25 38.1354 84.25 37.9062V33.7188C84.25 33.0729 84.3906 32.7135 84.6719 32.6406C84.7344 32.6302 84.8021 32.625 84.875 32.625H86.75C88.5 32.625 89.8698 32.474 90.8594 32.1719C90.9948 32.1198 91.125 32.0729 91.25 32.0312C90.7083 31.0521 89.7917 29.9792 88.5 28.8125L86.7344 29.6875L84.875 25.9688L86.3438 19.9219L98.9375 15.7812L98.375 21.5938L90.7812 24C92.7292 25.4583 94.1771 27.0885 95.125 28.8906C95.8021 30.2031 96.1406 31.4948 96.1406 32.7656C96.1406 34.151 95.6719 35.4792 94.7344 36.75C94.401 37.1979 94.0417 37.5885 93.6562 37.9219C91.6667 38.6094 89.5156 38.9688 87.2031 39C87.0469 39 86.8958 39 86.75 39H84.875Z" fill="#8B9BFF"/>
<path d="M105.013 28.6602C105.359 27.7799 106.6 27.7799 106.946 28.6602L107.871 31.0141C107.977 31.2828 108.189 31.4956 108.456 31.6016L110.802 32.5299C111.679 32.8771 111.679 34.1229 110.802 34.4701L108.456 35.3984C108.189 35.5044 107.977 35.7172 107.871 35.9859L106.946 38.3398C106.6 39.2201 105.359 39.2201 105.013 38.3398L104.088 35.9859C103.983 35.7172 103.771 35.5044 103.503 35.3984L101.158 34.4701C100.281 34.1229 100.281 32.8771 101.158 32.5299L103.503 31.6016C103.771 31.4956 103.983 31.2828 104.088 31.0141L105.013 28.6602Z" fill="#8B9BFF"/>
<path d="M5.01312 28.6602C5.35913 27.7799 6.60026 27.7799 6.94605 28.6602L7.87104 31.0141C7.97678 31.2828 8.18868 31.4956 8.45646 31.6016L10.8016 32.5299C11.6787 32.8771 11.6787 34.1229 10.8016 34.4701L8.45646 35.3984C8.18868 35.5044 7.97678 35.7172 7.87104 35.9859L6.94627 38.3398C6.60026 39.2201 5.35913 39.2201 5.01312 38.3398L4.08835 35.9859C3.98261 35.7172 3.77071 35.5044 3.50293 35.3984L1.1578 34.4701C0.280735 34.1229 0.280735 32.8771 1.1578 32.5299L3.50293 31.6016C3.77071 31.4956 3.98261 31.2828 4.08835 31.0141L5.01312 28.6602Z" fill="#8B9BFF"/>
</svg>
